<svg width="512" height="512" viewBox="0 0 512 512" fill="none" xmlns="http://www.w3.org/2000/svg">
  <path
    d="M311.622 148.568C318.226 142.254 327.17 138.378 337.018 138.378C357.342 138.378 373.818 154.891 373.818 175.26C373.818 185.552 369.612 194.859 362.829 201.549C370.664 203.036 378.264 205.186 385.57 207.939C391.838 198.603 395.496 187.36 395.496 175.26C395.496 142.891 369.314 116.651 337.018 116.651C325.287 116.651 314.362 120.113 305.206 126.074C307.952 133.301 310.11 140.818 311.622 148.568Z"
    fill="black" />
  <path
    d="M423.664 229.801C429.387 234.436 434.732 239.52 439.647 245C453.124 225.116 461 201.11 461 175.26C461 106.633 405.491 51 337.018 51C311.471 51 287.728 58.7442 268 72.018C273.499 76.9312 278.603 82.279 283.258 88.0077C298.88 78.319 317.297 72.7266 337.018 72.7266C393.519 72.7266 439.322 118.633 439.322 175.26C439.322 195.304 433.584 214.004 423.664 229.801Z"
    fill="black" />
  <path
    d="M73.353 267C59.8755 286.884 52 310.89 52 336.74C52 405.367 107.509 461 175.982 461C201.529 461 225.272 453.256 245 439.982C239.501 435.069 234.397 429.721 229.742 423.992C214.12 433.681 195.703 439.273 175.982 439.273C119.481 439.273 73.6779 393.367 73.6779 336.74C73.6779 316.696 79.4162 297.996 89.3361 282.199C83.6134 277.564 78.2679 272.48 73.353 267Z"
    fill="black" />
  <path
    d="M127.43 304.061C121.162 313.397 117.504 324.64 117.504 336.74C117.504 369.109 143.686 395.349 175.982 395.349C187.713 395.349 198.638 391.887 207.794 385.926C205.048 378.699 202.89 371.182 201.378 363.432C194.774 369.746 185.83 373.622 175.982 373.622C155.658 373.622 139.182 357.109 139.182 336.74C139.182 326.448 143.388 317.141 150.171 310.451C142.336 308.964 134.736 306.814 127.43 304.061Z"
    fill="black" />
  <path fill-rule="evenodd" clip-rule="evenodd"
    d="M73.6914 175.061C73.6914 118.524 119.523 72.6917 176.059 72.6917C230.949 72.6917 275.748 115.894 278.311 170.15V170.271L278.417 252.938L278.427 252.931V336.939C278.427 369.256 304.624 395.454 336.941 395.454C369.258 395.454 395.455 369.256 395.455 336.939C395.455 306.759 372.608 281.915 343.265 278.761V300.656C360.589 303.655 373.764 318.758 373.764 336.939C373.764 357.276 357.278 373.763 336.941 373.763C317.103 373.763 300.929 358.075 300.148 338.429L300.118 267.377V266.846V241.392C311.545 236.986 323.961 234.57 336.941 234.57C393.477 234.57 439.309 280.402 439.309 336.939C439.309 393.476 393.477 439.308 336.941 439.308C282.343 439.308 237.728 396.564 234.734 342.713L234.374 170.201C231.904 140.158 206.739 116.546 176.059 116.546C143.742 116.546 117.545 142.744 117.545 175.061C117.545 205.092 140.167 229.84 169.301 233.19V211.266C152.192 208.092 139.236 193.09 139.236 175.061C139.236 154.724 155.722 138.237 176.059 138.237C196.396 138.237 212.882 154.724 212.882 175.061C212.882 176.36 212.882 177.573 212.882 178.777L212.683 220.7C212.75 220.647 212.617 220.753 212.683 220.7L212.882 270.608C201.455 275.014 189.039 277.43 176.059 277.43C119.523 277.43 73.6914 231.598 73.6914 175.061ZM300.118 218.434V175.061C300.118 106.544 244.575 51 176.059 51C107.543 51 52 106.544 52 175.061C52 243.578 107.543 299.122 176.059 299.122C188.881 299.122 201.248 297.177 212.882 293.566V336.939C212.882 405.456 268.425 461 336.941 461C405.457 461 461 405.456 461 336.939C461 268.422 405.457 212.878 336.941 212.878C324.119 212.878 311.752 214.823 300.118 218.434Z"
    fill="black" />
</svg>